<?xml version="1.0" standalone="no"?><svg version="1.1" xmlns="http://www.w3.org/2000/svg" width="1019.8525391684025" height="875.1226443602286"><svg x="442.2257486626158" y="457.5" width="89.80452477488421" height="299.21055780806296"><path d="M4,273.21055780806296L30.402262387442107,273.21055780806296Q40.40226238744211,273.21055780806296,40.40226238744211,263.21055780806296L40.40226238744211,32Q40.40226238744211,22,50.40226238744211,22L76.80452477488421,22L50.40226238744211,22Q40.40226238744211,22,40.40226238744211,32L40.40226238744211,263.21055780806296Q40.40226238744211,273.21055780806296,30.402262387442107,273.21055780806296L4,273.21055780806296L4,273.21055780806296M14,269.21055780806296L14,277.21055780806296M76.80452477488421,18L66.80452477488421,22L76.80452477488421,26" fill="none" stroke="#D3D3D3" stroke-width="1"></path><text x="7" y="270.21055780806296" style="font-family: &quot;Open Sans&quot;, sans-serif; font-size: 14px; font-weight: normal; fill: transparent;">1</text><text x="66.09358727488421" y="19" style="font-family: &quot;Open Sans&quot;, sans-serif; font-size: 14px; font-weight: normal; fill: transparent;">*</text></svg><svg x="465.0302734375" y="184.28190090046337" width="112.60904954976832" height="106.21809909953663"><path d="M4,80.21809909953663L41.80452477488416,80.21809909953663Q51.80452477488416,80.21809909953663,51.80452477488416,70.21809909953663L51.80452477488416,32Q51.80452477488416,22,61.80452477488416,22L99.60904954976832,22L61.80452477488416,22Q51.80452477488416,22,51.80452477488416,32L51.80452477488416,70.21809909953663Q51.80452477488416,80.21809909953663,41.80452477488416,80.21809909953663L4,80.21809909953663L4,80.21809909953663M14,76.21809909953663L14,84.21809909953663M99.60904954976832,18L89.60904954976832,22L99.60904954976832,26" fill="none" stroke="#D3D3D3" stroke-width="1"></path><text x="7" y="77.21809909953663" style="font-family: &quot;Open Sans&quot;, sans-serif; font-size: 14px; font-weight: normal; fill: transparent;">1</text><text x="88.89811204976832" y="19" style="font-family: &quot;Open Sans&quot;, sans-serif; font-size: 14px; font-weight: normal; fill: transparent;">*</text></svg><svg x="205.51513671875" y="27.5" width="67" height="329"><path d="M4,22L19,22Q29,22,29,32L29,293Q29,303,39,303L54,303L39,303Q29,303,29,293L29,32Q29,22,19,22L4,22L4,22M14,18L14,26M44,299L44,307" fill="none" stroke="#D3D3D3" stroke-width="1"></path><text x="7" y="19" style="font-family: &quot;Open Sans&quot;, sans-serif; font-size: 14px; font-weight: normal; fill: transparent;">1</text><text x="42.9951171875" y="300" style="font-family: &quot;Open Sans&quot;, sans-serif; font-size: 14px; font-weight: normal; fill: transparent;">1</text></svg><svg x="185.8564453125" y="242.5" width="86.65869140625" height="48"><path d="M4,22L38.829345703125,22Q38.829345703125,22,38.829345703125,22L38.829345703125,22Q38.829345703125,22,38.829345703125,22L73.65869140625,22L38.829345703125,22Q38.829345703125,22,38.829345703125,22L38.829345703125,22Q38.829345703125,22,38.829345703125,22L4,22L4,22M14,18L14,26M63.65869140625,18L63.65869140625,26" fill="none" stroke="#D3D3D3" stroke-width="1"></path><text x="7" y="19" style="font-family: &quot;Open Sans&quot;, sans-serif; font-size: 14px; font-weight: normal; fill: transparent;">1</text><text x="62.65380859375" y="19" style="font-family: &quot;Open Sans&quot;, sans-serif; font-size: 14px; font-weight: normal; fill: transparent;">1</text></svg><svg x="185.8564453125" y="242.5" width="86.65869140625" height="81"><path d="M4,55L28.829345703125,55Q38.829345703125,55,38.829345703125,45L38.829345703125,32Q38.829345703125,22,48.829345703125,22L73.65869140625,22L48.829345703125,22Q38.829345703125,22,38.829345703125,32L38.829345703125,45Q38.829345703125,55,28.829345703125,55L4,55L4,55M14,51L14,59M63.65869140625,18L63.65869140625,26" fill="none" stroke="#D3D3D3" stroke-width="1"></path><text x="7" y="52" style="font-family: &quot;Open Sans&quot;, sans-serif; font-size: 14px; font-weight: normal; fill: transparent;">1</text><text x="62.65380859375" y="19" style="font-family: &quot;Open Sans&quot;, sans-serif; font-size: 14px; font-weight: normal; fill: transparent;">1</text></svg><svg x="205.51513671875" y="490.5" width="607.9536133871525" height="130.1226443602286"><path d="M4,22L289.47680669357624,22Q299.47680669357624,22,299.47680669357624,32L299.47680669357624,94.1226443602286Q299.47680669357624,104.1226443602286,309.47680669357624,104.1226443602286L594.9536133871525,104.1226443602286L309.47680669357624,104.1226443602286Q299.47680669357624,104.1226443602286,299.47680669357624,94.1226443602286L299.47680669357624,32Q299.47680669357624,22,289.47680669357624,22L4,22L4,22M4,18L14,22L4,26M584.9536133871525,100.1226443602286L584.9536133871525,108.1226443602286" fill="none" stroke="#D3D3D3" stroke-width="1"></path><text x="7" y="19" style="font-family: &quot;Open Sans&quot;, sans-serif; font-size: 14px; font-weight: normal; fill: transparent;">*</text><text x="583.9487305746525" y="101.1226443602286" style="font-family: &quot;Open Sans&quot;, sans-serif; font-size: 14px; font-weight: normal; fill: transparent;">1</text></svg><svg x="442.2257486626158" y="242.5" width="49.804524774884214" height="448.21055780806296"><path d="M4,422.21055780806296L36.804524774884214,422.21055780806296Q46.804524774884214,422.21055780806296,46.804524774884214,412.21055780806296L46.804524774884214,32Q46.804524774884214,22,36.804524774884214,22L26.804524774884214,22L36.804524774884214,22Q46.804524774884214,22,46.804524774884214,32L46.804524774884214,412.21055780806296Q46.804524774884214,422.21055780806296,36.804524774884214,422.21055780806296L4,422.21055780806296L4,422.21055780806296ZM14,418.21055780806296L14,426.21055780806296M36.804524774884214,18L36.804524774884214,26" fill="none" stroke="#D3D3D3" stroke-width="1"></path><text x="7" y="419.21055780806296" style="font-family: &quot;Open Sans&quot;, sans-serif; font-size: 14px; font-weight: normal; fill: transparent;">1</text><text x="29.804524774884214" y="19" style="font-family: &quot;Open Sans&quot;, sans-serif; font-size: 14px; font-weight: normal; fill: transparent;">1</text></svg><svg x="442.2257486626158" y="242.5" width="49.804524774884214" height="481.21055780806296"><path d="M4,455.21055780806296L36.804524774884214,455.21055780806296Q46.804524774884214,455.21055780806296,46.804524774884214,445.21055780806296L46.804524774884214,32Q46.804524774884214,22,36.804524774884214,22L26.804524774884214,22L36.804524774884214,22Q46.804524774884214,22,46.804524774884214,32L46.804524774884214,445.21055780806296Q46.804524774884214,455.21055780806296,36.804524774884214,455.21055780806296L4,455.21055780806296L4,455.21055780806296ZM14,451.21055780806296L14,459.21055780806296M36.804524774884214,18L36.804524774884214,26" fill="none" stroke="#D3D3D3" stroke-width="1"></path><text x="7" y="452.21055780806296" style="font-family: &quot;Open Sans&quot;, sans-serif; font-size: 14px; font-weight: normal; fill: transparent;">1</text><text x="29.804524774884214" y="19" style="font-family: &quot;Open Sans&quot;, sans-serif; font-size: 14px; font-weight: normal; fill: transparent;">1</text></svg><svg x="205.51513671875" y="27.5" width="607.9536133871525" height="725.1226443602286"><path d="M4,22L289.47680669357624,22Q299.47680669357624,22,299.47680669357624,32L299.47680669357624,689.1226443602286Q299.47680669357624,699.1226443602286,309.47680669357624,699.1226443602286L594.9536133871525,699.1226443602286L309.47680669357624,699.1226443602286Q299.47680669357624,699.1226443602286,299.47680669357624,689.1226443602286L299.47680669357624,32Q299.47680669357624,22,289.47680669357624,22L4,22L4,22M14,18L14,26M584.9536133871525,695.1226443602286L584.9536133871525,703.1226443602286" fill="none" stroke="#D3D3D3" stroke-width="1"></path><text x="7" y="19" style="font-family: &quot;Open Sans&quot;, sans-serif; font-size: 14px; font-weight: normal; fill: transparent;">1</text><text x="583.9487305746525" y="696.1226443602286" style="font-family: &quot;Open Sans&quot;, sans-serif; font-size: 14px; font-weight: normal; fill: transparent;">1</text></svg><svg x="465.0302734375" y="242.5" width="348.4384766684025" height="411.1226443602286"><path d="M4,22L159.71923833420124,22Q169.71923833420124,22,169.71923833420124,32L169.71923833420124,375.1226443602286Q169.71923833420124,385.1226443602286,179.71923833420124,385.1226443602286L335.4384766684025,385.1226443602286L179.71923833420124,385.1226443602286Q169.71923833420124,385.1226443602286,169.71923833420124,375.1226443602286L169.71923833420124,32Q169.71923833420124,22,159.71923833420124,22L4,22L4,22M14,18L14,26M335.4384766684025,381.1226443602286L325.4384766684025,385.1226443602286L335.4384766684025,389.1226443602286" fill="none" stroke="#D3D3D3" stroke-width="1"></path><text x="7" y="19" style="font-family: &quot;Open Sans&quot;, sans-serif; font-size: 14px; font-weight: normal; fill: transparent;">1</text><text x="324.7275391684025" y="382.1226443602286" style="font-family: &quot;Open Sans&quot;, sans-serif; font-size: 14px; font-weight: normal; fill: transparent;">*</text></svg><svg x="0" y="215"><rect x="0" y="0" width="189.8564453125" height="33" fill="#316896"></rect><text x="10" y="19.75" style="font-family: &quot;Open Sans&quot;, sans-serif; font-size: 13px; font-weight: bold; fill: rgb(255, 255, 255);">follow</text></svg><svg x="0" y="248"><rect x="0" y="0" width="189.8564453125" height="33" fill="#F2F2F2"></rect><text x="10" y="19.75" style="font-family: &quot;Open Sans&quot;, sans-serif; font-size: 13px; fill: rgb(111, 111, 111);">followee_id</text><text x="136.9970703125" y="19.75" style="font-family: &quot;Open Sans&quot;, sans-serif; font-size: 13px; fill: rgb(111, 111, 111);">integer</text></svg><svg x="0" y="281"><rect x="0" y="0" width="189.8564453125" height="33" fill="#F2F2F2"></rect><text x="10" y="19.75" style="font-family: &quot;Open Sans&quot;, sans-serif; font-size: 13px; fill: rgb(111, 111, 111);">follower_id</text><text x="136.9970703125" y="19.75" style="font-family: &quot;Open Sans&quot;, sans-serif; font-size: 13px; fill: rgb(111, 111, 111);">integer</text></svg><svg x="0" y="314"><rect x="0" y="0" width="189.8564453125" height="33" fill="#F2F2F2"></rect><text x="10" y="19.75" style="font-family: &quot;Open Sans&quot;, sans-serif; font-size: 13px; fill: rgb(111, 111, 111);">follow_type</text><text x="163.96826171875" y="19.75" style="font-family: &quot;Open Sans&quot;, sans-serif; font-size: 13px; fill: rgb(111, 111, 111);">int</text></svg><svg x="259.51513671875" y="215"><rect x="0" y="0" width="209.51513671875" height="33" fill="#316896"></rect><text x="10" y="19.75" style="font-family: &quot;Open Sans&quot;, sans-serif; font-size: 13px; font-weight: bold; fill: rgb(255, 255, 255);">user</text></svg><svg x="259.51513671875" y="248"><rect x="0" y="0" width="209.51513671875" height="33" fill="#F2F2F2"></rect><text x="10" y="19.75" style="font-family: &quot;Open Sans&quot;, sans-serif; font-size: 13px; font-weight: bold; fill: black;">id</text><text x="152.751953125" y="19.75" style="font-family: &quot;Open Sans&quot;, sans-serif; font-size: 13px; font-weight: bold; fill: black;">integer</text></svg><svg x="259.51513671875" y="281"><rect x="0" y="0" width="209.51513671875" height="33" fill="#F2F2F2"></rect><text x="10" y="19.75" style="font-family: &quot;Open Sans&quot;, sans-serif; font-size: 13px; fill: rgb(111, 111, 111);">name</text><text x="153.74853515625" y="19.75" style="font-family: &quot;Open Sans&quot;, sans-serif; font-size: 13px; fill: rgb(111, 111, 111);">varchar</text></svg><svg x="259.51513671875" y="314"><rect x="0" y="0" width="209.51513671875" height="33" fill="#F2F2F2"></rect><text x="10" y="19.75" style="font-family: &quot;Open Sans&quot;, sans-serif; font-size: 13px; fill: rgb(111, 111, 111);">media_id</text><text x="156.65576171875" y="19.75" style="font-family: &quot;Open Sans&quot;, sans-serif; font-size: 13px; fill: rgb(111, 111, 111);">integer</text></svg><svg x="259.51513671875" y="347"><rect x="0" y="0" width="209.51513671875" height="33" fill="#F2F2F2"></rect><text x="10" y="19.75" style="font-family: &quot;Open Sans&quot;, sans-serif; font-size: 13px; fill: rgb(111, 111, 111);">firstname</text><text x="153.74853515625" y="19.75" style="font-family: &quot;Open Sans&quot;, sans-serif; font-size: 13px; fill: rgb(111, 111, 111);">varchar</text></svg><svg x="259.51513671875" y="380"><rect x="0" y="0" width="209.51513671875" height="33" fill="#F2F2F2"></rect><text x="10" y="19.75" style="font-family: &quot;Open Sans&quot;, sans-serif; font-size: 13px; fill: rgb(111, 111, 111);">lastname</text><text x="153.74853515625" y="19.75" style="font-family: &quot;Open Sans&quot;, sans-serif; font-size: 13px; fill: rgb(111, 111, 111);">varchar</text></svg><svg x="259.51513671875" y="413"><rect x="0" y="0" width="209.51513671875" height="33" fill="#F2F2F2"></rect><text x="10" y="19.75" style="font-family: &quot;Open Sans&quot;, sans-serif; font-size: 13px; fill: rgb(111, 111, 111);">created_at</text><text x="134.22314453125" y="19.75" style="font-family: &quot;Open Sans&quot;, sans-serif; font-size: 13px; fill: rgb(111, 111, 111);">timestamp</text></svg><svg x="259.51513671875" y="446"><rect x="0" y="0" width="209.51513671875" height="33" fill="#F2F2F2"></rect><text x="10" y="19.75" style="font-family: &quot;Open Sans&quot;, sans-serif; font-size: 13px; fill: rgb(111, 111, 111);">city</text><text x="153.74853515625" y="19.75" style="font-family: &quot;Open Sans&quot;, sans-serif; font-size: 13px; fill: rgb(111, 111, 111);">varchar</text></svg><svg x="564.6393229872683" y="123.78190090046337"><rect x="0" y="0" width="162.8916015625" height="33" fill="#316896"></rect><text x="10" y="19.75" style="font-family: &quot;Open Sans&quot;, sans-serif; font-size: 13px; font-weight: bold; fill: rgb(255, 255, 255);">hobby</text></svg><svg x="564.6393229872683" y="156.78190090046337"><rect x="0" y="0" width="162.8916015625" height="33" fill="#F2F2F2"></rect><text x="10" y="19.75" style="font-family: &quot;Open Sans&quot;, sans-serif; font-size: 13px; font-weight: bold; fill: black;">id</text><text x="106.12841796875" y="19.75" style="font-family: &quot;Open Sans&quot;, sans-serif; font-size: 13px; font-weight: bold; fill: black;">integer</text></svg><svg x="564.6393229872683" y="189.78190090046337"><rect x="0" y="0" width="162.8916015625" height="33" fill="#F2F2F2"></rect><text x="10" y="19.75" style="font-family: &quot;Open Sans&quot;, sans-serif; font-size: 13px; fill: rgb(111, 111, 111);">user_id</text><text x="110.0322265625" y="19.75" style="font-family: &quot;Open Sans&quot;, sans-serif; font-size: 13px; fill: rgb(111, 111, 111);">integer</text></svg><svg x="564.6393229872683" y="222.78190090046337"><rect x="0" y="0" width="162.8916015625" height="33" fill="#F2F2F2"></rect><text x="10" y="19.75" style="font-family: &quot;Open Sans&quot;, sans-serif; font-size: 13px; fill: rgb(111, 111, 111);">name</text><text x="107.125" y="19.75" style="font-family: &quot;Open Sans&quot;, sans-serif; font-size: 13px; fill: rgb(111, 111, 111);">varchar</text></svg><svg x="800.4687501059025" y="545.1226443602286"><rect x="0" y="0" width="214.3837890625" height="33" fill="#316896"></rect><text x="10" y="19.75" style="font-family: &quot;Open Sans&quot;, sans-serif; font-size: 13px; font-weight: bold; fill: rgb(255, 255, 255);">post</text></svg><svg x="800.4687501059025" y="578.1226443602286"><rect x="0" y="0" width="214.3837890625" height="33" fill="#F2F2F2"></rect><text x="10" y="19.75" style="font-family: &quot;Open Sans&quot;, sans-serif; font-size: 13px; font-weight: bold; fill: black;">id</text><text x="157.62060546875" y="19.75" style="font-family: &quot;Open Sans&quot;, sans-serif; font-size: 13px; font-weight: bold; fill: black;">integer</text></svg><svg x="800.4687501059025" y="611.1226443602286"><rect x="0" y="0" width="214.3837890625" height="33" fill="#F2F2F2"></rect><text x="10" y="19.75" style="font-family: &quot;Open Sans&quot;, sans-serif; font-size: 13px; fill: rgb(111, 111, 111);">user_id</text><text x="161.5244140625" y="19.75" style="font-family: &quot;Open Sans&quot;, sans-serif; font-size: 13px; fill: rgb(111, 111, 111);">integer</text></svg><svg x="800.4687501059025" y="644.1226443602286"><rect x="0" y="0" width="214.3837890625" height="33" fill="#F2F2F2"></rect><text x="10" y="19.75" style="font-family: &quot;Open Sans&quot;, sans-serif; font-size: 13px; fill: rgb(111, 111, 111);">created_at</text><text x="139.091796875" y="19.75" style="font-family: &quot;Open Sans&quot;, sans-serif; font-size: 13px; fill: rgb(111, 111, 111);">timestamp</text></svg><svg x="800.4687501059025" y="677.1226443602286"><rect x="0" y="0" width="214.3837890625" height="33" fill="#F2F2F2"></rect><text x="10" y="19.75" style="font-family: &quot;Open Sans&quot;, sans-serif; font-size: 13px; fill: rgb(111, 111, 111);">description</text><text x="158.6171875" y="19.75" style="font-family: &quot;Open Sans&quot;, sans-serif; font-size: 13px; fill: rgb(111, 111, 111);">varchar</text></svg><svg x="800.4687501059025" y="710.1226443602286"><rect x="0" y="0" width="214.3837890625" height="33" fill="#F2F2F2"></rect><text x="10" y="19.75" style="font-family: &quot;Open Sans&quot;, sans-serif; font-size: 13px; fill: rgb(111, 111, 111);">media_id</text><text x="161.5244140625" y="19.75" style="font-family: &quot;Open Sans&quot;, sans-serif; font-size: 13px; fill: rgb(111, 111, 111);">integer</text></svg><svg x="800.4687501059025" y="743.1226443602286"><rect x="0" y="0" width="214.3837890625" height="33" fill="#F2F2F2"></rect><text x="10" y="19.75" style="font-family: &quot;Open Sans&quot;, sans-serif; font-size: 13px; fill: rgb(111, 111, 111);">likes</text><text x="161.5244140625" y="19.75" style="font-family: &quot;Open Sans&quot;, sans-serif; font-size: 13px; fill: rgb(111, 111, 111);">integer</text></svg><svg x="800.4687501059025" y="776.1226443602286"><rect x="0" y="0" width="214.3837890625" height="33" fill="#F2F2F2"></rect><text x="10" y="19.75" style="font-family: &quot;Open Sans&quot;, sans-serif; font-size: 13px; fill: rgb(111, 111, 111);">dislikes</text><text x="161.5244140625" y="19.75" style="font-family: &quot;Open Sans&quot;, sans-serif; font-size: 13px; fill: rgb(111, 111, 111);">integer</text></svg><svg x="800.4687501059025" y="809.1226443602286"><rect x="0" y="0" width="214.3837890625" height="33" fill="#F2F2F2"></rect><text x="10" y="19.75" style="font-family: &quot;Open Sans&quot;, sans-serif; font-size: 13px; fill: rgb(111, 111, 111);">hashtags</text><text x="158.6171875" y="19.75" style="font-family: &quot;Open Sans&quot;, sans-serif; font-size: 13px; fill: rgb(111, 111, 111);">varchar</text></svg><svg x="800.4687501059025" y="842.1226443602286"><rect x="0" y="0" width="214.3837890625" height="33" fill="#F2F2F2"></rect><text x="10" y="19.75" style="font-family: &quot;Open Sans&quot;, sans-serif; font-size: 13px; fill: rgb(111, 111, 111);">watched_times</text><text x="161.5244140625" y="19.75" style="font-family: &quot;Open Sans&quot;, sans-serif; font-size: 13px; fill: rgb(111, 111, 111);">integer</text></svg><svg x="0" y="397"><rect x="0" y="0" width="209.51513671875" height="33" fill="#316896"></rect><text x="10" y="19.75" style="font-family: &quot;Open Sans&quot;, sans-serif; font-size: 13px; font-weight: bold; fill: rgb(255, 255, 255);">comment</text></svg><svg x="0" y="430"><rect x="0" y="0" width="209.51513671875" height="33" fill="#F2F2F2"></rect><text x="10" y="19.75" style="font-family: &quot;Open Sans&quot;, sans-serif; font-size: 13px; font-weight: bold; fill: black;">id</text><text x="152.751953125" y="19.75" style="font-family: &quot;Open Sans&quot;, sans-serif; font-size: 13px; font-weight: bold; fill: black;">integer</text></svg><svg x="0" y="463"><rect x="0" y="0" width="209.51513671875" height="33" fill="#F2F2F2"></rect><text x="10" y="19.75" style="font-family: &quot;Open Sans&quot;, sans-serif; font-size: 13px; fill: rgb(111, 111, 111);">user_id</text><text x="156.65576171875" y="19.75" style="font-family: &quot;Open Sans&quot;, sans-serif; font-size: 13px; fill: rgb(111, 111, 111);">integer</text></svg><svg x="0" y="496"><rect x="0" y="0" width="209.51513671875" height="33" fill="#F2F2F2"></rect><text x="10" y="19.75" style="font-family: &quot;Open Sans&quot;, sans-serif; font-size: 13px; fill: rgb(111, 111, 111);">post_id</text><text x="156.65576171875" y="19.75" style="font-family: &quot;Open Sans&quot;, sans-serif; font-size: 13px; fill: rgb(111, 111, 111);">integer</text></svg><svg x="0" y="529"><rect x="0" y="0" width="209.51513671875" height="33" fill="#F2F2F2"></rect><text x="10" y="19.75" style="font-family: &quot;Open Sans&quot;, sans-serif; font-size: 13px; fill: rgb(111, 111, 111);">description</text><text x="153.74853515625" y="19.75" style="font-family: &quot;Open Sans&quot;, sans-serif; font-size: 13px; fill: rgb(111, 111, 111);">varchar</text></svg><svg x="0" y="562"><rect x="0" y="0" width="209.51513671875" height="33" fill="#F2F2F2"></rect><text x="10" y="19.75" style="font-family: &quot;Open Sans&quot;, sans-serif; font-size: 13px; fill: rgb(111, 111, 111);">created_at</text><text x="134.22314453125" y="19.75" style="font-family: &quot;Open Sans&quot;, sans-serif; font-size: 13px; fill: rgb(111, 111, 111);">timestamp</text></svg><svg x="236.71061194386579" y="582.210557808063"><rect x="0" y="0" width="209.51513671875" height="33" fill="#316896"></rect><text x="10" y="19.75" style="font-family: &quot;Open Sans&quot;, sans-serif; font-size: 13px; font-weight: bold; fill: rgb(255, 255, 255);">chat</text></svg><svg x="236.71061194386579" y="615.210557808063"><rect x="0" y="0" width="209.51513671875" height="33" fill="#F2F2F2"></rect><text x="10" y="19.75" style="font-family: &quot;Open Sans&quot;, sans-serif; font-size: 13px; font-weight: bold; fill: black;">id</text><text x="152.751953125" y="19.75" style="font-family: &quot;Open Sans&quot;, sans-serif; font-size: 13px; font-weight: bold; fill: black;">integer</text></svg><svg x="236.71061194386579" y="648.210557808063"><rect x="0" y="0" width="209.51513671875" height="33" fill="#F2F2F2"></rect><text x="10" y="19.75" style="font-family: &quot;Open Sans&quot;, sans-serif; font-size: 13px; fill: rgb(111, 111, 111);">from_user</text><text x="156.65576171875" y="19.75" style="font-family: &quot;Open Sans&quot;, sans-serif; font-size: 13px; fill: rgb(111, 111, 111);">integer</text></svg><svg x="236.71061194386579" y="681.210557808063"><rect x="0" y="0" width="209.51513671875" height="33" fill="#F2F2F2"></rect><text x="10" y="19.75" style="font-family: &quot;Open Sans&quot;, sans-serif; font-size: 13px; fill: rgb(111, 111, 111);">to_user</text><text x="156.65576171875" y="19.75" style="font-family: &quot;Open Sans&quot;, sans-serif; font-size: 13px; fill: rgb(111, 111, 111);">integer</text></svg><svg x="236.71061194386579" y="714.210557808063"><rect x="0" y="0" width="209.51513671875" height="33" fill="#F2F2F2"></rect><text x="10" y="19.75" style="font-family: &quot;Open Sans&quot;, sans-serif; font-size: 13px; fill: rgb(111, 111, 111);">message_id</text><text x="156.65576171875" y="19.75" style="font-family: &quot;Open Sans&quot;, sans-serif; font-size: 13px; fill: rgb(111, 111, 111);">integer</text></svg><svg x="236.71061194386579" y="747.210557808063"><rect x="0" y="0" width="209.51513671875" height="33" fill="#F2F2F2"></rect><text x="10" y="19.75" style="font-family: &quot;Open Sans&quot;, sans-serif; font-size: 13px; fill: rgb(111, 111, 111);">created_at</text><text x="134.22314453125" y="19.75" style="font-family: &quot;Open Sans&quot;, sans-serif; font-size: 13px; fill: rgb(111, 111, 111);">timestamp</text></svg><svg x="519.0302734375" y="397"><rect x="0" y="0" width="163.02490234375" height="33" fill="#316896"></rect><text x="10" y="19.75" style="font-family: &quot;Open Sans&quot;, sans-serif; font-size: 13px; font-weight: bold; fill: rgb(255, 255, 255);">message</text></svg><svg x="519.0302734375" y="430"><rect x="0" y="0" width="163.02490234375" height="33" fill="#F2F2F2"></rect><text x="10" y="19.75" style="font-family: &quot;Open Sans&quot;, sans-serif; font-size: 13px; font-weight: bold; fill: black;">id</text><text x="106.26171875" y="19.75" style="font-family: &quot;Open Sans&quot;, sans-serif; font-size: 13px; font-weight: bold; fill: black;">integer</text></svg><svg x="519.0302734375" y="463"><rect x="0" y="0" width="163.02490234375" height="33" fill="#F2F2F2"></rect><text x="10" y="19.75" style="font-family: &quot;Open Sans&quot;, sans-serif; font-size: 13px; fill: rgb(111, 111, 111);">chat_id</text><text x="110.16552734375" y="19.75" style="font-family: &quot;Open Sans&quot;, sans-serif; font-size: 13px; fill: rgb(111, 111, 111);">integer</text></svg><svg x="519.0302734375" y="496"><rect x="0" y="0" width="163.02490234375" height="33" fill="#F2F2F2"></rect><text x="10" y="19.75" style="font-family: &quot;Open Sans&quot;, sans-serif; font-size: 13px; fill: rgb(111, 111, 111);">text</text><text x="107.25830078125" y="19.75" style="font-family: &quot;Open Sans&quot;, sans-serif; font-size: 13px; fill: rgb(111, 111, 111);">varchar</text></svg><svg x="519.0302734375" y="529"><rect x="0" y="0" width="163.02490234375" height="33" fill="#F2F2F2"></rect><text x="10" y="19.75" style="font-family: &quot;Open Sans&quot;, sans-serif; font-size: 13px; fill: rgb(111, 111, 111);">read</text><text x="103.65283203125" y="19.75" style="font-family: &quot;Open Sans&quot;, sans-serif; font-size: 13px; fill: rgb(111, 111, 111);">boolean</text></svg><svg x="0" y="0"><rect x="0" y="0" width="209.51513671875" height="33" fill="#316896"></rect><text x="10" y="19.75" style="font-family: &quot;Open Sans&quot;, sans-serif; font-size: 13px; font-weight: bold; fill: rgb(255, 255, 255);">media</text></svg><svg x="0" y="33"><rect x="0" y="0" width="209.51513671875" height="33" fill="#F2F2F2"></rect><text x="10" y="19.75" style="font-family: &quot;Open Sans&quot;, sans-serif; font-size: 13px; font-weight: bold; fill: black;">id</text><text x="152.751953125" y="19.75" style="font-family: &quot;Open Sans&quot;, sans-serif; font-size: 13px; font-weight: bold; fill: black;">integer</text></svg><svg x="0" y="66"><rect x="0" y="0" width="209.51513671875" height="33" fill="#F2F2F2"></rect><text x="10" y="19.75" style="font-family: &quot;Open Sans&quot;, sans-serif; font-size: 13px; fill: rgb(111, 111, 111);">file_url</text><text x="153.74853515625" y="19.75" style="font-family: &quot;Open Sans&quot;, sans-serif; font-size: 13px; fill: rgb(111, 111, 111);">varchar</text></svg><svg x="0" y="99"><rect x="0" y="0" width="209.51513671875" height="33" fill="#F2F2F2"></rect><text x="10" y="19.75" style="font-family: &quot;Open Sans&quot;, sans-serif; font-size: 13px; fill: rgb(111, 111, 111);">created_at</text><text x="134.22314453125" y="19.75" style="font-family: &quot;Open Sans&quot;, sans-serif; font-size: 13px; fill: rgb(111, 111, 111);">timestamp</text></svg><svg x="0" y="132"><rect x="0" y="0" width="209.51513671875" height="33" fill="#F2F2F2"></rect><text x="10" y="19.75" style="font-family: &quot;Open Sans&quot;, sans-serif; font-size: 13px; fill: rgb(111, 111, 111);">media_type</text><text x="183.626953125" y="19.75" style="font-family: &quot;Open Sans&quot;, sans-serif; font-size: 13px; fill: rgb(111, 111, 111);">int</text></svg></svg>